 <svg version="1.0" xmlns="http://www.w3.org/2000/svg"  width="50.000000pt" height="50.000000pt" viewBox="0 0 50.000000 50.000000"  preserveAspectRatio="xMidYMid meet">  <g transform="translate(0.000000,50.000000) scale(0.100000,-0.100000)" fill="#ffffff" stroke="none"> <path d="M240 352 l0 -88 -45 -44 -45 -44 -25 24 -26 24 -51 -52 c-29 -28 -49 -55 -45 -59 4 -3 28 13 52 37 43 42 46 43 62 27 16 -16 14 -21 -52 -87 -38 -38 -66 -73 -62 -77 4 -4 34 19 66 51 52 51 61 57 80 47 15 -9 25 -8 41 1 16 10 24 10 40 0 16 -10 24 -10 40 0 16 10 24 10 40 0 16 -9 26 -10 41 -1 19 10 28 4 80 -47 32 -32 62 -55 66 -51 4 4 -24 39 -62 77 -66 66 -68 71 -52 87 16 16 19 15 62 -27 24 -24 48 -40 52 -37 4 4 -16 31 -45 59 l-51 52 -26 -24 -25 -24 -45 44 c-39 38 -45 50 -45 86 0 40 2 42 45 58 25 10 45 21 45 26 0 7 -90 50 -104 50 -3 0 -6 -40 -6 -88z m69 42 c6 -6 -1 -11 -26 -18 -19 -6 -23 -4 -23 14 0 18 4 20 23 14 12 -3 24 -8 26 -10z m0 -208 c38 -39 49 -55 38 -59 -8 -3 -24 1 -35 9 -18 12 -25 12 -42 2 -16 -10 -24 -10 -40 0 -17 10 -24 10 -42 -2 -11 -8 -27 -12 -35 -9 -11 4 0 20 38 59 29 30 56 54 59 54 3 0 30 -24 59 -54z"/> </g> </svg> 