<svg fill="#ffffff" height="64px" width="64px" version="1.1" id="Capa_1" xmlns="http://www.w3.org/2000/svg" xmlns:xlink="http://www.w3.org/1999/xlink" viewBox="0 0 214 214" xml:space="preserve" stroke="#ffffff"><g id="SVGRepo_bgCarrier" stroke-width="0"></g><g id="SVGRepo_tracerCarrier" stroke-linecap="round" stroke-linejoin="round"></g><g id="SVGRepo_iconCarrier"> <path d="M107,214c-43.636,0-79.136-35.5-79.136-79.136V5c0-2.762,2.239-5,5-5h148.272c2.761,0,5,2.238,5,5v129.864 C186.136,178.5,150.636,214,107,214z M37.864,10v124.864C37.864,172.986,68.878,204,107,204s69.136-31.014,69.136-69.136V10H37.864z M139.366,128.974H74.634c-2.761,0-5-2.238-5-5v-14.194L57.411,77.883c-0.791-2.063-0.133-4.401,1.618-5.75 c1.751-1.35,4.18-1.388,5.973-0.097l24.879,17.919l12.375-37.175c0.68-2.043,2.591-3.421,4.744-3.421s4.064,1.378,4.744,3.421 l12.375,37.175l24.879-17.919c1.793-1.29,4.222-1.253,5.973,0.097c1.751,1.349,2.409,3.687,1.618,5.75l-12.223,31.896v14.194 C144.366,126.735,142.127,128.974,139.366,128.974z M79.634,118.974h54.732v-10.119c0-0.611,0.112-1.218,0.331-1.789l6.566-17.135 l-16.818,12.113c-1.29,0.929-2.944,1.188-4.46,0.7c-1.513-0.489-2.704-1.67-3.206-3.179L107,70.189l-9.779,29.376 c-0.502,1.509-1.693,2.689-3.207,3.179c-1.514,0.488-3.169,0.229-4.46-0.7L72.737,89.931l6.566,17.135 c0.219,0.571,0.331,1.178,0.331,1.789V118.974z"></path> </g></svg>