 <svg version="1.0" xmlns="http://www.w3.org/2000/svg"  width="50.000000pt" height="50.000000pt" viewBox="0 0 50.000000 50.000000"  preserveAspectRatio="xMidYMid meet">  <g transform="translate(0.000000,50.000000) scale(0.100000,-0.100000)" fill="#ffffff" stroke="none"> <path d="M238 474 c-4 -3 -4 -21 -1 -40 9 -53 -10 -67 -78 -60 l-56 7 -42 -117 c-22 -64 -41 -122 -41 -129 0 -8 12 -23 26 -34 37 -29 95 -28 131 3 l28 25 -38 108 c-20 59 -37 110 -37 113 0 14 76 -5 88 -21 14 -20 47 -25 57 -9 7 11 48 13 81 4 20 -5 20 -8 -18 -110 -21 -57 -38 -110 -38 -118 0 -8 12 -24 26 -35 37 -29 95 -28 131 3 l28 25 -40 116 c-22 64 -42 121 -46 126 -3 5 -27 12 -54 16 -62 8 -86 33 -83 87 3 36 -9 55 -24 40z m28 -115 c10 -17 -13 -36 -27 -22 -12 12 -4 33 11 33 5 0 12 -5 16 -11z m-146 -43 c0 -8 13 -49 29 -90 l29 -76 -68 0 -68 0 29 76 c16 41 29 82 29 90 0 8 5 14 10 14 6 0 10 -6 10 -14z m280 -40 c0 -8 13 -49 29 -90 l29 -76 -68 0 -68 0 29 76 c16 41 29 82 29 90 0 8 5 14 10 14 6 0 10 -6 10 -14z m-240 -161 c-14 -8 -36 -14 -50 -14 -14 0 -36 6 -50 14 -23 13 -20 14 50 14 70 0 73 -1 50 -14z m280 -40 c-14 -8 -36 -14 -50 -14 -14 0 -36 6 -50 14 -23 13 -20 14 50 14 70 0 73 -1 50 -14z"/> </g> </svg> 