 <svg version="1.0" xmlns="http://www.w3.org/2000/svg"  width="50.000000pt" height="50.000000pt" viewBox="0 0 50.000000 50.000000"  preserveAspectRatio="xMidYMid meet">  <g transform="translate(0.000000,50.000000) scale(0.100000,-0.100000)" fill="#ffffff" stroke="none"> <path d="M81 403 c-17 -27 -41 -91 -56 -151 -21 -87 -24 -110 -15 -138 12 -36 52 -64 90 -64 34 0 76 27 89 57 10 25 16 28 61 28 45 0 51 -3 61 -28 33 -79 155 -72 179 11 9 31 7 53 -14 134 -29 112 -67 185 -102 194 -35 9 -74 -20 -74 -54 0 -27 -2 -28 -50 -28 -44 0 -50 2 -50 21 0 35 -28 65 -61 65 -24 0 -34 -8 -58 -47z m87 15 c19 -19 14 -30 -9 -17 -12 6 -30 8 -41 6 -16 -4 -17 -3 -7 9 14 17 41 18 57 2z m221 -2 c10 -12 9 -13 -7 -9 -11 2 -29 0 -41 -6 -23 -13 -28 -2 -9 17 16 16 43 15 57 -2z m-213 -57 c28 -27 34 -29 52 -18 15 9 27 10 44 2 19 -9 28 -6 56 18 58 51 88 34 116 -63 20 -71 21 -68 -12 -56 -51 19 -89 1 -135 -66 -24 -35 -70 -35 -94 0 -46 67 -84 85 -135 66 -15 -5 -28 -9 -28 -8 0 1 7 27 16 57 31 106 63 124 120 68z m-21 -154 c16 -15 25 -36 25 -55 0 -71 -86 -105 -137 -54 -21 21 -24 32 -19 62 11 70 83 96 131 47z m300 0 c50 -49 15 -135 -55 -135 -41 0 -80 39 -80 80 0 41 39 80 80 80 19 0 40 -9 55 -25z"/> <path d="M220 235 c-26 -32 13 -81 48 -59 22 14 27 41 12 59 -16 19 -44 19 -60 0z m46 -16 c10 -17 -13 -36 -27 -22 -12 12 -4 33 11 33 5 0 12 -5 16 -11z"/> <path d="M40 145 c0 -19 36 -55 55 -55 22 0 18 17 -6 23 -11 3 -23 15 -26 26 -6 24 -23 28 -23 6z"/> <path d="M350 145 c0 -19 36 -55 55 -55 22 0 18 17 -6 23 -11 3 -23 15 -26 26 -6 24 -23 28 -23 6z"/> </g> </svg> 